PathFileType	4	(X/Y/Z)	s01c0401.trc
DataRate	CameraRate	NumFrames	NumMarkers	Units	OrigDataRate	OrigDataStartFrame	OrigNumFrames
200	200	6	48	mm	200	500	2000
Frame#	Time	racr			lacr			c7			jug			rlel			rdr			llel			ldr			s2			lic			ric			lasi			rasi			rpsi			lpsi			rgt			lgt			rth1			rth2			rth3			rth4			rlfc			rsh1			rsh2			rsh3			rsh4			rlmal			rmmal			rcal			rtoe			rmt5			lth1			lth2			lth4			lth3			llfc			lsh1			lsh2			lsh3			lsh4			llmal			lmmal			lcal			ltoe			lmt5			SBIKE			LBIKE			RBIKE			
		X1	Y1	Z1	X2	Y2	Z2	X3	Y3	Z3	X4	Y4	Z4	X5	Y5	Z5	X6	Y6	Z6	X7	Y7	Z7	X8	Y8	Z8	X9	Y9	Z9	X10	Y10	Z10	X11	Y11	Z11	X12	Y12	Z12	X13	Y13	Z13	X14	Y14	Z14	X15	Y15	Z15	X16	Y16	Z16	X17	Y17	Z17	X18	Y18	Z18	X19	Y19	Z19	X20	Y20	Z20	X21	Y21	Z21	X22	Y22	Z22	X23	Y23	Z23	X24	Y24	Z24	X25	Y25	Z25	X26	Y26	Z26	X27	Y27	Z27	X28	Y28	Z28	X29	Y29	Z29	X30	Y30	Z30	X31	Y31	Z31	X32	Y32	Z32	X33	Y33	Z33	X34	Y34	Z34	X35	Y35	Z35	X36	Y36	Z36	X37	Y37	Z37	X38	Y38	Z38	X39	Y39	Z39	X40	Y40	Z40	X41	Y41	Z41	X42	Y42	Z42	X43	Y43	Z43	X44	Y44	Z44	X45	Y45	Z45	X46	Y46	Z46	X47	Y47	Z47	X48	Y48	Z48	
500	2.5000	675.939514	1326.970825	-40.644855	703.266418	1308.649048	-410.735443	671.371094	1414.048950	-228.415451	690.566895	1247.120483	-221.620605	544.883789	1069.672363	58.484825	700.127930	899.772339	-38.019650	559.252380	1075.566528	-540.096130	705.406067	896.933289	-450.131683	152.625183	1190.013306	-224.508759	321.518738	1197.501953	-407.928070	319.828796	1173.860962	-76.779053	318.381744	1140.064331	-381.771240	344.470428	1128.592285	-110.525673	193.728363	1223.359009	-174.709961	184.008438	1232.822144	-279.419067	253.634064	1058.678467	-54.221912	265.904388	1072.817017	-432.743256	298.654663	936.315674	-39.915318	331.509369	860.257812	-46.073605	361.709198	776.324158	-60.067059	383.352783	879.864441	-57.555126	381.681213	662.083557	-84.999847	330.636749	553.225159	-52.723392	306.427277	472.162170	-60.196854	272.794220	390.826477	-73.032135	350.572174	460.129730	-99.711716	214.419159	280.402618	-99.300407	253.262161	288.027710	-174.633118	165.658035	267.843658	-151.130844	414.816345	160.898819	-130.439285	304.834839	165.842224	-63.361713	352.210815	982.702576	-444.386841	430.913422	946.275024	-437.432953	454.029572	993.469238	-424.260223	502.268250	900.812317	-424.749817	563.765625	818.112671	-405.129730	458.968628	777.625610	-437.936279	384.301514	734.035522	-433.343506	308.312622	694.600708	-422.095551	412.414429	689.101746	-400.977417	200.109787	637.059814	-410.445770	222.292145	620.191711	-326.065247	141.472809	652.650757	-367.162201	286.252930	414.517670	-367.473602	211.753998	488.673981	-435.920593	-270.428467	878.021362	-265.201630	-11.949298	84.604446	-453.459351	-20.239250	80.825935	-53.662457	
501	2.5050	677.043274	1328.285522	-43.095963	702.660522	1309.519043	-413.245056	671.431641	1415.095703	-231.152069	690.979370	1248.370361	-224.088440	546.198730	1071.307861	57.361359	700.498474	899.950317	-38.039082	558.890015	1075.399658	-540.839233	705.460693	897.414246	-450.356903	152.801895	1190.861816	-224.721619	321.156189	1198.647827	-408.580200	320.527527	1174.556274	-77.622505	318.333221	1141.066772	-382.357758	344.769196	1128.937744	-111.057053	193.789566	1224.453125	-174.634827	184.102325	1233.536621	-279.473358	253.166870	1059.137207	-54.908859	266.030548	1074.473999	-433.352142	296.890167	936.521057	-40.281937	328.760468	860.183411	-46.197174	358.159546	775.856018	-59.873306	380.973938	879.025391	-57.554432	377.052826	661.335938	-84.700356	326.004059	552.468994	-52.506111	301.999268	471.282959	-60.016781	268.627319	389.903900	-72.879608	346.353210	459.363373	-99.258568	210.654861	279.403442	-99.551949	248.739822	286.443726	-174.608154	162.161850	267.698456	-151.159103	409.805878	157.336334	-130.539841	299.918823	163.784302	-63.362522	353.050995	984.933533	-445.035309	432.308502	949.387329	-438.354462	454.861176	996.796814	-424.718262	503.748016	904.559387	-425.731171	566.147278	822.550354	-405.614746	461.283813	781.472778	-438.117950	386.896545	737.413696	-433.410645	311.106720	697.616150	-422.068634	415.327606	692.701843	-401.197479	203.355087	639.355042	-410.322845	225.711304	622.731262	-325.923309	144.426865	654.354126	-367.101624	292.139099	418.071228	-367.475494	216.874985	491.442719	-435.982788	-270.495850	877.995605	-265.090973	-11.951699	84.613541	-453.462769	-20.245649	80.835289	-53.669483	
502	2.5100	678.189087	1329.417480	-45.582634	702.021179	1310.356323	-415.706726	671.515991	1416.073853	-233.803284	691.352356	1249.483643	-226.708298	547.428894	1072.956787	56.295811	700.871704	900.161072	-38.095154	558.559631	1075.207642	-541.673584	705.467285	897.722534	-450.655975	152.878677	1191.589600	-224.882584	320.774658	1199.780151	-409.235504	321.354309	1175.252075	-78.523331	318.228210	1142.202393	-382.885834	345.033997	1129.328125	-111.604713	194.126282	1224.999512	-174.808670	184.204742	1234.362427	-279.558197	252.702972	1059.796997	-55.600494	266.067719	1076.135010	-433.972809	295.039429	936.925598	-40.597054	326.071777	860.129761	-46.344353	354.577667	775.477600	-59.710587	378.546204	878.412598	-57.530544	372.357117	660.722473	-84.448776	321.275421	551.810913	-52.305531	297.502014	470.670166	-59.841476	264.366791	389.103088	-72.696358	342.056122	458.736237	-98.916626	206.889572	278.701874	-99.741089	244.754288	285.279724	-174.446777	158.610092	267.745514	-151.159882	404.671570	154.029678	-130.643967	294.946320	161.996765	-63.441238	353.762451	987.224792	-445.772949	433.411499	952.561951	-439.237976	455.528534	1000.202271	-425.320587	506.416504	909.224121	-425.266235	568.406311	827.028137	-406.180450	463.501862	785.314697	-438.353119	389.383270	740.818909	-433.505646	313.872009	700.513000	-422.042664	418.166443	696.237549	-401.436920	206.571442	641.438110	-410.210815	229.158005	625.128540	-325.806824	147.394547	655.830200	-367.049713	298.160583	421.587280	-367.375610	221.853897	494.005432	-435.894196	-270.540070	878.025635	-265.105347	-11.955335	84.611244	-453.470612	-20.243130	80.854454	-53.674786	
503	2.5150	679.485779	1330.430786	-48.109722	701.406067	1311.142944	-418.245331	671.694519	1416.942017	-236.539001	691.802307	1250.679321	-229.260101	548.580261	1074.548706	55.303562	700.827454	900.040955	-38.316219	558.455627	1075.275757	-542.284546	705.449341	898.055725	-450.903351	152.961884	1192.612549	-225.120804	320.403442	1200.898804	-409.893494	322.050659	1176.113037	-79.360207	318.092926	1143.361694	-383.462097	345.250549	1129.724731	-112.159409	194.432037	1225.803467	-175.019791	184.304047	1235.356812	-279.670349	252.190689	1060.497559	-56.302345	265.980225	1077.803223	-434.591309	293.161194	937.410278	-40.883526	323.311279	860.297729	-46.017414	350.990784	775.228088	-59.503433	376.107056	877.937561	-57.537350	367.712860	660.163696	-84.326363	316.506958	551.446716	-52.052143	292.927399	470.171417	-59.607071	260.075012	388.568390	-72.470398	337.744476	458.283234	-98.421143	203.178894	278.096191	-99.815613	241.097397	284.442139	-174.184387	155.050201	267.911163	-151.264099	399.546173	150.924454	-130.686234	289.911865	160.269363	-63.529148	354.328644	989.563721	-446.572937	434.363434	955.830505	-440.072998	455.878632	1003.768188	-426.004883	507.892975	913.339355	-426.045349	570.312744	831.332703	-407.199219	465.615234	789.148254	-438.627350	391.796692	744.207886	-433.693420	316.601318	703.314148	-422.032196	420.962799	699.729736	-401.797302	209.810516	643.346375	-410.104156	232.628693	627.341370	-325.711639	150.361816	657.068420	-366.985321	304.194550	424.867859	-367.291779	226.948929	496.273529	-435.847626	-270.608612	878.031982	-265.057373	-11.959676	84.609802	-453.477661	-20.259686	80.864502	-53.683975	
504	2.5200	680.760010	1331.396851	-50.701336	700.812927	1311.892578	-420.784790	671.945923	1417.791748	-239.274826	692.193726	1251.601196	-231.907684	549.717651	1076.041748	54.346283	701.138367	900.085327	-38.311020	557.977295	1075.124023	-543.220459	705.351257	898.420776	-451.153870	156.808746	1192.354492	-226.214661	320.041168	1202.027466	-410.546844	322.807556	1176.956665	-80.289314	317.936981	1144.607178	-383.933075	345.420410	1130.160522	-112.727707	195.154770	1226.140503	-175.549347	184.399216	1236.470459	-279.802246	251.682571	1061.344116	-56.992363	265.788330	1079.510010	-435.273560	291.299591	937.925171	-41.290829	320.551575	860.491760	-46.121567	347.338287	775.108337	-59.402859	373.570221	877.546082	-57.548706	362.917480	659.879517	-84.159149	311.720306	551.120544	-51.872772	288.334351	469.865143	-59.366222	255.797073	388.171295	-72.095024	333.272369	458.004089	-97.982452	199.430389	277.783234	-99.965591	237.473831	283.787659	-173.949341	151.536880	268.366852	-151.134491	394.277863	147.719604	-130.814331	284.825165	158.657654	-63.596020	354.758820	991.972473	-447.458252	435.181610	959.034302	-440.942993	456.173187	1007.279480	-426.586578	509.191345	917.392639	-426.811646	571.837830	835.717529	-408.612457	467.627777	792.947449	-438.957489	394.162201	747.459900	-433.857178	319.261902	706.007385	-422.068268	423.730011	703.162659	-402.203003	213.030243	645.003052	-410.022278	236.107285	629.357544	-325.531281	153.334412	658.063110	-366.934784	310.322357	428.011200	-367.269135	232.138168	498.365601	-435.863953	-270.622131	877.954041	-265.254791	-11.967546	84.606232	-453.478516	-20.261250	80.866966	-53.664135	
505	2.5250	682.132446	1332.214355	-53.272018	700.187927	1312.552124	-423.400940	672.252502	1418.533447	-242.070511	692.615540	1252.565063	-234.580826	550.924500	1077.393311	53.432884	701.499878	900.083435	-38.328087	557.376648	1075.110840	-544.311707	705.234375	898.768616	-451.443420	156.873245	1193.568604	-226.484390	319.695221	1203.171875	-411.198090	323.468567	1177.889893	-81.160294	317.727722	1145.886108	-384.467743	345.546204	1130.623047	-113.301208	195.185577	1227.773682	-175.504303	184.482025	1237.694336	-279.950623	251.086288	1062.198975	-57.708210	265.564270	1081.203979	-435.936493	289.350708	938.639709	-41.669922	317.883881	860.787231	-46.741596	343.596252	775.206055	-59.069359	371.073151	877.295837	-57.599663	358.118805	659.761047	-84.020065	306.962433	551.053345	-51.734257	283.773651	469.712677	-59.200703	251.519440	388.170990	-71.644379	329.009033	457.804810	-97.444359	195.714859	277.434814	-100.062347	233.843582	283.322815	-173.657700	148.075089	268.963226	-151.102249	388.955536	144.673599	-130.964722	279.665527	157.157242	-63.710575	355.063751	994.450562	-448.377533	435.773132	962.424072	-441.858246	456.251434	1010.753906	-427.210510	510.165466	921.512268	-427.670624	573.876587	840.916443	-408.567444	469.526581	796.689575	-439.335114	396.433960	750.667786	-434.096832	321.939545	708.531250	-422.056671	426.382477	706.593323	-402.736389	216.164047	646.501892	-409.999512	239.625595	631.142151	-325.476135	156.361252	658.824219	-366.915009	316.538940	431.100769	-367.184479	237.307144	500.236816	-435.848328	-270.816071	877.968933	-265.439575	-11.968692	84.605080	-453.485748	-20.268036	80.854347	-53.690254	
